{"title":"Red River 2011 DVDRip Xvid BigPerm LKRG","uid":6195451,"size":1505098539,"categoryP":"video","categoryS":"movies","magnet":"?xt=urn:btih:875eda45bb384c3f8fbbe0ede84d061a9dde4229&amp;dn=Red+River+2011+DVDRip+Xvid+BigPerm+LKRG&amp;tr=udp%3A%2F%2Ftracker.openbittorrent.com%3A80&amp;tr=udp%3A%2F%2Fopen.demonii.com%3A1337&amp;tr=udp%3A%2F%2Ftracker.coppersurfer.tk%3A6969&amp;tr=udp%3A%2F%2Fexodus.desync.com%3A6969","seeders":0,"leechers":4,"uploader":".BONE.","files":2,"time":1298442095,"description":"Plot\n\nSet in a small town in the backwoods of Kentucky, RED RIVER tells the tale of Roland Thatcher: a\nfamily man, a business man, a man of God...and a man who doesn't take kindly to strangers. When a group\nof city kids sets up camp on the outskirts of his property, they spark a chain of events culminating in\nbloodshed, dismemberment and mass murder. As a local, fledgling reporter inches closer to the Thatcher\nproperty, the shocking truth about Roland and his 'family' may finally emerge...\n &lt;a href=&quot;\nhttp://www.imdb.com/title/tt1498568/&quot; rel=&quot;nofollow&quot; target=&quot;_NEW&quot;&gt;\nhttp://www.imdb.com/title/tt1498568/&lt;/a&gt;\n\n\nCast\n\nDustin Roe ... Wes\nRonica Jones ... Tammera\nLevi Brandenburg ... Cliff\nMegan Marie Wilson ... Natisha\nGeorge Robert Bailey ... Ranger Blackwell\nSonny Burnette ... Preacher\n &lt;a href=&quot;\nhttp://leetleech.org/images/27408686386260315251.png&quot; rel=&quot;nofollow&quot; target=&quot;_NEW&quot;&gt;\nhttp://leetleech.org/images/27408686386260315251.png&lt;/a&gt;\n &lt;a href=&quot;\nhttp://leetleech.org/images/54887994787045049430.png&quot; rel=&quot;nofollow&quot; target=&quot;_NEW&quot;&gt;\nhttp://leetleech.org/images/54887994787045049430.png&lt;/a&gt;\n &lt;a href=&quot;\nhttp://leetleech.org/images/36403687665181931692.png&quot; rel=&quot;nofollow&quot; target=&quot;_NEW&quot;&gt;\nhttp://leetleech.org/images/36403687665181931692.png&lt;/a&gt;\n &lt;a href=&quot;\nhttp://leetleech.org/images/34060705271083168487.png&quot; rel=&quot;nofollow&quot; target=&quot;_NEW&quot;&gt;\nhttp://leetleech.org/images/34060705271083168487.png&lt;/a&gt;\n &lt;a href=&quot;\nhttp://leetleech.org/images/68622992425555833737.png&quot; rel=&quot;nofollow&quot; target=&quot;_NEW&quot;&gt;\nhttp://leetleech.org/images/68622992425555833737.png&lt;/a&gt;\n\nGeneral\nComplete name : Red River 2011 DVDRip Xvid BigPerm LKRG\\RR_LKRG.avi\nFormat : AVI\nFormat/Info : Audio Video Interleave\nFile size : 1.40 GiB\nDuration : 1h 17mn\nOverall bit rate : 2 590 Kbps\n\nVideo\nID : 0\nFormat : MPEG-4 Visual\nFormat profile : Advanced Simple@L5\nFormat settings, BVOP : Yes\nFormat settings, QPel : No\nFormat settings, GMC : No warppoints\nFormat settings, Matrix : Default (H.263)\nMuxing mode : Packed bitstream\nCodec ID : XVID\nCodec ID/Hint : XviD\nDuration : 1h 17mn\nBit rate : 2 322 Kbps\nWidth : 640 pixels\nHeight : 270 pixels\nDisplay aspect ratio : 2.35:1\nFrame rate : 29.970 fps\nColor space : YUV\nChroma subsampling : 4:2:0\nBit depth : 8 bits\nScan type : Progressive\nCompression mode : Lossy\nBits/(Pixel*Frame) : 0.448\nStream size : 1.26 GiB (90%)\nWriting library : XviD 1.2.1 (UTC 2008-12-04)\n\nAudio\nID : 1\nFormat : AC-3\nFormat/Info : Audio Coding 3\nMode extension : CM (complete main)\nCodec ID : 2000\nDuration : 1h 17mn\nBit rate mode : Constant\nBit rate : 256 Kbps\nChannel(s) : 2 channels\nChannel positions : Front: L R\nSampling rate : 48.0 KHz\nBit depth : 16 bits\nCompression mode : Lossy\nStream size : 142 MiB (10%)\nAlignment : Aligned on interleaves\nInterleave, duration : 33 ms (1.00 video frame)\nInterleave, preload duration : 512 ms\nLanguage : English\n\n","torrent":{"xt":"urn:btih:875eda45bb384c3f8fbbe0ede84d061a9dde4229","amp;dn":"Red+River+2011+DVDRip+Xvid+BigPerm+LKRG","amp;tr":["udp%3A%2F%2Ftracker.openbittorrent.com%3A80","udp%3A%2F%2Fopen.demonii.com%3A1337","udp%3A%2F%2Ftracker.coppersurfer.tk%3A6969","udp%3A%2F%2Fexodus.desync.com%3A6969"],"infoHash":"875eda45bb384c3f8fbbe0ede84d061a9dde4229","infoHashBuffer":{"type":"Buffer","data":[135,94,218,69,187,56,76,63,143,187,224,237,232,77,6,26,157,222,66,41]},"announce":[],"urlList":[]}}